<svg xmlns="http://www.w3.org/2000/svg" viewBox="0 0 720 430" width="720" height="430" style="max-width:100%;height:auto" font-family='Georgia, "Times New Roman", serif'>
<rect x="0" y="0" width="720" height="430" fill="white"/>
<line x1="443" y1="18" x2="443" y2="378" stroke="#b33b3b" stroke-dasharray="4 3"/><line x1="200" y1="378" x2="686" y2="378" stroke="#555"/><line x1="200" y1="378" x2="200" y2="383" stroke="#555"/><text x="200" y="398" font-size="12" text-anchor="middle" fill="#555">-10</text><line x1="321.5" y1="378" x2="321.5" y2="383" stroke="#555"/><text x="321.5" y="398" font-size="12" text-anchor="middle" fill="#555">-5</text><line x1="443" y1="378" x2="443" y2="383" stroke="#555"/><text x="443" y="398" font-size="12" text-anchor="middle" fill="#555">0</text><line x1="564.5" y1="378" x2="564.5" y2="383" stroke="#555"/><text x="564.5" y="398" font-size="12" text-anchor="middle" fill="#555">+5</text><line x1="686" y1="378" x2="686" y2="383" stroke="#555"/><text x="686" y="398" font-size="12" text-anchor="middle" fill="#555">+10</text><text x="443" y="422" font-size="12" text-anchor="middle" fill="#555">Difference in pass rate (pp), 95% CI</text><text x="10" y="37" font-size="13" font-weight="bold" fill="#1a1a1a">Instant (B1)</text><text x="188" y="67" font-size="12" text-anchor="end" fill="#1a1a1a">A2 − A1</text><line x1="348.23" y1="63" x2="557.21" y2="63" stroke="#2f5d8a" stroke-width="2"/><line x1="348.23" y1="58" x2="348.23" y2="68" stroke="#2f5d8a" stroke-width="2"/><line x1="557.21" y1="58" x2="557.21" y2="68" stroke="#2f5d8a" stroke-width="2"/><circle cx="450.29" cy="63" r="4.5" fill="#2f5d8a"/><text x="188" y="97" font-size="12" text-anchor="end" fill="#1a1a1a">A3 − A2</text><line x1="260.75" y1="93" x2="496.46" y2="93" stroke="#2f5d8a" stroke-width="2"/><line x1="260.75" y1="88" x2="260.75" y2="98" stroke="#2f5d8a" stroke-width="2"/><line x1="496.46" y1="88" x2="496.46" y2="98" stroke="#2f5d8a" stroke-width="2"/><circle cx="382.25" cy="93" r="4.5" fill="#2f5d8a"/><text x="188" y="127" font-size="12" text-anchor="end" fill="#1a1a1a">A3 − A1</text><line x1="241.30999999999997" y1="123" x2="537.77" y2="123" stroke="#2f5d8a" stroke-width="2"/><line x1="241.30999999999997" y1="118" x2="241.30999999999997" y2="128" stroke="#2f5d8a" stroke-width="2"/><line x1="537.77" y1="118" x2="537.77" y2="128" stroke="#2f5d8a" stroke-width="2"/><circle cx="389.54" cy="123" r="4.5" fill="#2f5d8a"/><text x="10" y="157" font-size="13" font-weight="bold" fill="#1a1a1a">Thinking (B2)</text><text x="188" y="187" font-size="12" text-anchor="end" fill="#1a1a1a">A2 − A1</text><line x1="389.54" y1="183" x2="523.19" y2="183" stroke="#2f5d8a" stroke-width="2"/><line x1="389.54" y1="178" x2="389.54" y2="188" stroke="#2f5d8a" stroke-width="2"/><line x1="523.19" y1="178" x2="523.19" y2="188" stroke="#2f5d8a" stroke-width="2"/><circle cx="457.58000000000004" cy="183" r="4.5" fill="#2f5d8a"/><text x="188" y="217" font-size="12" text-anchor="end" fill="#1a1a1a">A3 − A2</text><line x1="362.81" y1="213" x2="496.46" y2="213" stroke="#2f5d8a" stroke-width="2"/><line x1="362.81" y1="208" x2="362.81" y2="218" stroke="#2f5d8a" stroke-width="2"/><line x1="496.46" y1="208" x2="496.46" y2="218" stroke="#2f5d8a" stroke-width="2"/><circle cx="435.71" cy="213" r="4.5" fill="#2f5d8a"/><text x="188" y="247" font-size="12" text-anchor="end" fill="#1a1a1a">A3 − A1</text><line x1="389.54" y1="243" x2="503.75" y2="243" stroke="#2f5d8a" stroke-width="2"/><line x1="389.54" y1="238" x2="389.54" y2="248" stroke="#2f5d8a" stroke-width="2"/><line x1="503.75" y1="238" x2="503.75" y2="248" stroke="#2f5d8a" stroke-width="2"/><circle cx="450.29" cy="243" r="4.5" fill="#2f5d8a"/><text x="10" y="277" font-size="13" font-weight="bold" fill="#1a1a1a">Pooled</text><text x="188" y="307" font-size="12" text-anchor="end" fill="#1a1a1a">A2 − A1</text><line x1="384.68" y1="303" x2="520.76" y2="303" stroke="#2f5d8a" stroke-width="2"/><line x1="384.68" y1="298" x2="384.68" y2="308" stroke="#2f5d8a" stroke-width="2"/><line x1="520.76" y1="298" x2="520.76" y2="308" stroke="#2f5d8a" stroke-width="2"/><circle cx="452.72" cy="303" r="4.5" fill="#2f5d8a"/><text x="188" y="337" font-size="12" text-anchor="end" fill="#1a1a1a">A3 − A2</text><line x1="336.08" y1="333" x2="479.45" y2="333" stroke="#2f5d8a" stroke-width="2"/><line x1="336.08" y1="328" x2="336.08" y2="338" stroke="#2f5d8a" stroke-width="2"/><line x1="479.45" y1="328" x2="479.45" y2="338" stroke="#2f5d8a" stroke-width="2"/><circle cx="408.98" cy="333" r="4.5" fill="#2f5d8a"/><text x="188" y="367" font-size="12" text-anchor="end" fill="#1a1a1a">A3 − A1</text><line x1="331.22" y1="363" x2="511.04" y2="363" stroke="#2f5d8a" stroke-width="2"/><line x1="331.22" y1="358" x2="331.22" y2="368" stroke="#2f5d8a" stroke-width="2"/><line x1="511.04" y1="358" x2="511.04" y2="368" stroke="#2f5d8a" stroke-width="2"/><circle cx="418.70000000000005" cy="363" r="4.5" fill="#2f5d8a"/>
</svg>
